<?xml version="1.0" encoding="UTF-8" standalone="no"?>
<!-- Created with Inkscape (http://www.inkscape.org/) -->

<svg
   xmlns:dc="http://purl.org/dc/elements/1.1/"
   xmlns:cc="http://creativecommons.org/ns#"
   xmlns:rdf="http://www.w3.org/1999/02/22-rdf-syntax-ns#"
   xmlns:svg="http://www.w3.org/2000/svg"
   xmlns="http://www.w3.org/2000/svg"
   xmlns:xlink="http://www.w3.org/1999/xlink"
   xmlns:sodipodi="http://sodipodi.sourceforge.net/DTD/sodipodi-0.dtd"
   xmlns:inkscape="http://www.inkscape.org/namespaces/inkscape"
   width="200mm"
   height="120mm"
   viewBox="0 0 708.66142 425.19685"
   id="svg2"
   version="1.1"
   inkscape:version="0.91 r"
   sodipodi:docname="header_.svg"
   inkscape:export-filename="/home/valentin/Documents/code/projects/fooblog/the_blog/blogname.superbloghost.xyz/assets/header.png"
   inkscape:export-xdpi="25.4"
   inkscape:export-ydpi="25.4">
  <defs
     id="defs4">
    <linearGradient
       inkscape:collect="always"
       id="linearGradient4440">
      <stop
         style="stop-color:#000000;stop-opacity:1"
         offset="0"
         id="stop4442" />
      <stop
         id="stop4448"
         offset="1"
         style="stop-color:#4764e4;stop-opacity:1" />
      <stop
         style="stop-color:#0000ff;stop-opacity:0;"
         offset="1"
         id="stop4444" />
    </linearGradient>
    <linearGradient
       inkscape:collect="always"
       xlink:href="#linearGradient4440"
       id="linearGradient4446"
       x1="371.97208"
       y1="438.34744"
       x2="371.65469"
       y2="164.59612"
       gradientUnits="userSpaceOnUse"
       gradientTransform="translate(0,728.59393)" />
  </defs>
  <sodipodi:namedview
     id="base"
     pagecolor="#ffffff"
     bordercolor="#666666"
     borderopacity="1.0"
     inkscape:pageopacity="0.0"
     inkscape:pageshadow="2"
     inkscape:zoom="0.7"
     inkscape:cx="231.81249"
     inkscape:cy="161.89321"
     inkscape:document-units="px"
     inkscape:current-layer="layer1"
     showgrid="false"
     inkscape:window-width="1366"
     inkscape:window-height="716"
     inkscape:window-x="0"
     inkscape:window-y="0"
     inkscape:window-maximized="1" />
  <metadata
     id="metadata7">
    <rdf:RDF>
      <cc:Work
         rdf:about="">
        <dc:format>image/svg+xml</dc:format>
        <dc:type
           rdf:resource="http://purl.org/dc/dcmitype/StillImage" />
        <dc:title></dc:title>
      </cc:Work>
    </rdf:RDF>
  </metadata>
  <g
     inkscape:label="Layer 1"
     inkscape:groupmode="layer"
     id="layer1"
     transform="translate(0,-627.16535)">
    <path
       style="fill:url(#linearGradient4446);fill-opacity:1"
       d="m 664.74023,893.29315 c -0.90249,-0.0435 -1.78278,0.44788 -2.19921,1.3164 l -6.60352,13.77149 c -0.55524,1.15804 -0.0702,2.53656 1.08789,3.0918 l 13.77344,6.60351 c 1.15804,0.55524 2.53655,0.0702 3.09179,-1.08789 l 6.60352,-13.77148 c 0.55524,-1.15804 0.0702,-2.53851 -1.08789,-3.09375 l -13.77148,-6.60157 c -0.28951,-0.13881 -0.5937,-0.21402 -0.89454,-0.22851 z m -306.77343,4.38281 c -1.3934,0.0288 -2.77665,0.59188 -3.82227,1.68164 l -24.86914,25.91992 c -2.09123,2.17953 -2.01937,5.61776 0.16016,7.70899 l 25.91797,24.86914 c 2.17953,2.09123 5.61775,2.01937 7.70898,-0.16016 l 24.86914,-25.91992 c 2.09123,-2.17953 2.02133,-5.61776 -0.1582,-7.70898 l -25.91992,-24.86914 c -1.08977,-1.04562 -2.49333,-1.5503 -3.88672,-1.52149 z m -362.5937531,5.83399 c -1.9793048,-0.0408 -3.9846268,0.58294 -5.6660159,1.9121 l -45.703125,36.12891 c -3.843173,3.03809 -4.491209,8.5787 -1.453125,12.42188 l 36.128907,45.70312 c 3.038083,3.84314 8.576748,4.49124 12.4199214,1.45314 L 36.804688,965.00018 c 3.843173,-3.03808 4.491208,-8.57871 1.453124,-12.42187 L 2.1269531,906.87518 c -1.70892207,-2.16179 -4.2090857,-3.31273 -6.7539062,-3.36523 z m 708.1171831,0 c -1.9793,-0.0408 -3.98462,0.58294 -5.66601,1.9121 l -45.70313,36.12891 c -3.84317,3.03809 -4.49121,8.5787 -1.45312,12.42188 l 8.61523,10.89843 -15.65234,5.02539 c -1.47756,0.47439 -2.28494,2.04588 -1.81055,3.52344 l 5.64258,17.57227 c 0.47439,1.47756 2.04588,2.28493 3.52344,1.81054 l 17.57031,-5.64062 c 1.47756,-0.47439 2.28494,-2.04588 1.81055,-3.52344 l -2.56446,-7.99219 18.99415,24.0293 c 3.03808,3.84314 8.57674,4.49124 12.41992,1.45314 l 45.70312,-36.12892 c 3.84318,-3.03808 4.49121,-8.57871 1.45313,-12.42187 l -36.12891,-45.70313 c -1.70892,-2.16179 -4.20909,-3.31273 -6.75391,-3.36523 z m -649.029292,7.91601 c -2.014081,-0.16545 -3.768146,1.32381 -3.933594,3.33789 l -1.966797,23.95117 c -0.165448,2.01408 1.321857,3.76815 3.335937,3.9336 l 23.951172,1.96875 c 2.01408,0.16545 3.770099,-1.32381 3.935547,-3.33789 L 81.75,917.32831 c 0.165448,-2.01409 -1.321856,-3.76815 -3.335938,-3.9336 l -23.953124,-1.96875 z m 61.763672,1.74219 c -2.12508,-0.003 -4.13859,1.24381 -5.02149,3.33008 l -13.999995,33.08203 c -1.177182,2.78169 0.114788,5.96735 2.896485,7.14453 l 33.08008,14 c 2.78169,1.17718 5.9693,-0.11479 7.14648,-2.89648 l 13.99805,-33.08008 c 1.17718,-2.7817 -0.11479,-5.96931 -2.89649,-7.14649 L 118.34766,913.6037 c -0.69543,-0.2943 -1.41469,-0.43457 -2.12305,-0.43555 z m 465.86523,4.54492 c -2.42121,-0.003 -4.71478,1.41988 -5.7207,3.79688 l -15.95117,37.68945 c -1.34122,3.16932 0.13146,6.7994 3.30078,8.14062 l 37.68945,15.95118 c 3.16933,1.34122 6.80136,-0.13146 8.14258,-3.30079 L 625.5,942.30096 c 1.34122,-3.16932 -0.1295,-6.80135 -3.29883,-8.14258 l -37.6914,-15.94922 c -0.79234,-0.3353 -1.61286,-0.49497 -2.41993,-0.49609 z m -136.82812,22.22461 c -0.38532,-5.3e-4 -0.75007,0.22524 -0.91016,0.60352 l -2.53711,5.99804 c -0.21344,0.50437 0.021,1.08148 0.52539,1.29492 l 5.99805,2.53907 c 0.50437,0.21344 1.08148,-0.021 1.29492,-0.52539 l 2.53907,-5.99805 c 0.21343,-0.50437 -0.021,-1.08148 -0.5254,-1.29492 l -5.99804,-2.53906 c -0.1261,-0.0534 -0.25828,-0.0779 -0.38672,-0.0781 z m -163.51367,9.83594 c -0.34064,0.0266 -0.67153,0.18536 -0.91211,0.46679 l -5.72266,6.69336 c -0.48117,0.56288 -0.41444,1.4036 0.14844,1.88477 l 6.69336,5.7207 c 0.56287,0.48117 1.40359,0.41639 1.88476,-0.14648 l 5.72266,-6.69336 c 0.48117,-0.56288 0.41444,-1.40359 -0.14844,-1.88477 l -6.69336,-5.72265 c -0.28144,-0.24059 -0.63202,-0.34502 -0.97265,-0.31836 z m 127.1914,2.00195 c -1.07343,0.029 -2.00987,0.80574 -2.20312,1.90625 l -2.625,14.95703 c -0.22086,1.25773 0.61336,2.44711 1.87109,2.66797 l 14.95703,2.62695 c 1.25773,0.22087 2.44711,-0.61336 2.66797,-1.87109 l 2.62696,-14.95703 c 0.22086,-1.25773 -0.61337,-2.44906 -1.8711,-2.66992 l -14.95703,-2.625 c -0.15722,-0.0276 -0.31345,-0.0393 -0.4668,-0.0352 z m 70.36133,5.33398 c -0.90354,-10e-4 -1.75938,0.52898 -2.13476,1.41602 l -5.95118,14.06445 c -0.50051,1.18273 0.0478,2.53855 1.23047,3.03907 l 14.06641,5.95312 c 1.18272,0.50052 2.53659,-0.0497 3.03711,-1.23242 l 5.95312,-14.06445 c 0.50052,-1.18273 -0.0497,-2.53855 -1.23242,-3.03907 l -14.06445,-5.95117 c -0.29568,-0.12513 -0.60312,-0.18513 -0.9043,-0.18555 z m -172.74219,2.01954 c -0.79249,-10e-4 -1.54379,0.46416 -1.87304,1.24218 l -5.22071,12.33789 c -0.439,1.03737 0.0427,2.22507 1.08008,2.66407 l 12.33789,5.2207 c 1.03736,0.439 2.22506,-0.0427 2.66407,-1.08008 l 5.2207,-12.33594 c 0.439,-1.03736 -0.0427,-2.22701 -1.08008,-2.66601 l -12.33594,-5.2207 c -0.25934,-0.10975 -0.5288,-0.16175 -0.79297,-0.16211 z m -84.69336,1.80078 c -0.49671,0.0397 -0.9876,0.22326 -1.4082,0.55859 l -13.33984,10.63477 c -1.12159,0.89422 -1.30438,2.51708 -0.41016,3.63867 l 10.63477,13.33789 c 0.89422,1.12159 2.51708,1.30437 3.63867,0.41016 l 13.33789,-10.63477 c 1.12159,-0.89422 1.30437,-2.51708 0.41016,-3.63867 L 224.0957,961.89862 c -0.55888,-0.701 -1.40261,-1.03486 -2.23047,-0.96875 z m 308.11524,3.04101 c -4.35925,0.11789 -8.70761,1.69983 -12.26758,4.80078 l -82.52148,71.88274 -1.25391,0 -57.54297,-66.06047 c -9.10522,-10.45299 -24.84974,-11.53686 -35.30273,-2.43164 l -78.63086,68.49211 -5.45508,0 17.82617,-13.7734 c 2.03717,-1.5741 2.41,-4.4804 0.83594,-6.5176 l -18.71875,-24.2265 c -1.57406,-2.03717 -4.48236,-2.41 -6.51953,-0.83594 l -24.22657,18.71874 c -2.03717,1.574 -2.40999,4.4804 -0.83593,6.5175 l 15.54297,20.1172 -0.0156,0 -41.54492,-35.5136 c -4.97094,-4.2494 -12.3932,-3.6682 -16.64258,1.3027 l -26.6875,31.2187 c -0.76925,-0.8132 -1.62844,-1.5652 -2.57812,-2.2383 L 61.136719,970.00409 c -7.761863,-5.50113 -18.438327,-3.68179 -23.939453,4.08007 l -47.181641,66.57024 -33.453125,0 0,132.3302 307.64648,0 58.42188,67.0683 c 9.10522,10.453 24.84974,11.5388 35.30273,2.4336 l 79.78907,-69.5019 61.85351,0 3.76758,4.3261 c 7.0879,8.1371 19.34341,8.9825 27.48047,1.8946 l 7.14062,-6.2207 71.45313,0 29.28515,33.6211 c 7.08791,8.137 19.34537,8.9824 27.48243,1.8945 l 40.77343,-35.5156 30.45313,0 0,-26.5274 25.54101,-22.248 c 8.13707,-7.0879 8.98048,-19.3454 1.89258,-27.4825 l -27.43359,-31.4941 0,-24.5782 -21.4082,0 -35.44727,-40.69328 c -7.0879,-8.13706 -19.34536,-8.98244 -27.48242,-1.89453 l -47.76758,41.60931 -60.11133,-69.0097 c -3.98694,-4.5771 -9.6101,-6.84689 -15.21484,-6.69532 z m -364.58203,3.28516 c -0.791,-0.004 -1.59234,0.21958 -2.30274,0.69336 l -22.52929,15.02539 c -1.89439,1.26342 -2.4021,3.80483 -1.13868,5.69922 l 15.02539,22.52929 c 1.26343,1.8943 3.80484,2.4021 5.69922,1.1387 l 22.5293,-15.02541 c 1.89439,-1.26342 2.40209,-3.80484 1.13867,-5.69922 l -15.02539,-22.5293 c -0.78964,-1.18399 -2.07816,-1.82517 -3.39648,-1.83203 z m 261.0664,21.02148 c -1.5999,-0.0126 -2.89758,1.26533 -2.91015,2.86524 l -0.15039,19.02544 c -0.0126,1.5999 1.26533,2.8975 2.86523,2.9101 l 19.02735,0.1504 c 1.59989,0.013 2.89758,-1.2653 2.91015,-2.8652 l 0.15039,-19.02738 c 0.0126,-1.59991 -1.26533,-2.89759 -2.86523,-2.91016 l -19.02735,-0.14844 z"
       id="rect4155"
       inkscape:connector-curvature="0"
       inkscape:export-xdpi="21.71244"
       inkscape:export-ydpi="21.71244" />
  </g>
</svg>
