<?xml version="1.0" encoding="UTF-8" standalone="no"?>
<!-- Created with Inkscape (http://www.inkscape.org/) -->

<svg
   xmlns:dc="http://purl.org/dc/elements/1.1/"
   xmlns:cc="http://creativecommons.org/ns#"
   xmlns:rdf="http://www.w3.org/1999/02/22-rdf-syntax-ns#"
   xmlns:svg="http://www.w3.org/2000/svg"
   xmlns="http://www.w3.org/2000/svg"
   xmlns:xlink="http://www.w3.org/1999/xlink"
   xmlns:sodipodi="http://sodipodi.sourceforge.net/DTD/sodipodi-0.dtd"
   xmlns:inkscape="http://www.inkscape.org/namespaces/inkscape"
   width="1000"
   height="120"
   id="svg2"
   version="1.1"
   inkscape:version="0.48.5 r10040"
   sodipodi:docname="clouds.svg">
  <defs
     id="defs4">
    <linearGradient
       id="linearGradient4245">
      <stop
         style="stop-color:#86ffff;stop-opacity:1;"
         offset="0"
         id="stop4247" />
      <stop
         style="stop-color:#b064cb;stop-opacity:1;"
         offset="1"
         id="stop4249" />
    </linearGradient>
    <linearGradient
       id="linearGradient4114">
      <stop
         id="stop4122"
         offset="0"
         style="stop-color:#f0f0ff;stop-opacity:1;" />
      <stop
         style="stop-color:#9696ff;stop-opacity:1;"
         offset="1"
         id="stop4118" />
    </linearGradient>
    <linearGradient
       inkscape:collect="always"
       xlink:href="#linearGradient4114"
       id="linearGradient4120"
       x1="408.00729"
       y1="971.0545"
       x2="406.60199"
       y2="1118.1327"
       gradientUnits="userSpaceOnUse"
       gradientTransform="translate(2.8284271,-2.8284272)" />
    <linearGradient
       inkscape:collect="always"
       xlink:href="#linearGradient4245"
       id="linearGradient4251"
       x1="505.57449"
       y1="964.68939"
       x2="505.57791"
       y2="1065.8057"
       gradientUnits="userSpaceOnUse" />
    <clipPath
       clipPathUnits="userSpaceOnUse"
       id="clipPath4255">
      <rect
         style="fill:#ffffff;fill-opacity:1;fill-rule:nonzero;stroke:none"
         id="rect4257"
         width="1000.5561"
         height="122.32948"
         x="0.70710677"
         y="932.86115" />
    </clipPath>
    <clipPath
       clipPathUnits="userSpaceOnUse"
       id="clipPath4259">
      <rect
         style="fill:#ffffff;fill-opacity:1;fill-rule:nonzero;stroke:none"
         id="rect4261"
         width="1000.5561"
         height="122.32948"
         x="0.70710677"
         y="932.86115" />
    </clipPath>
  </defs>
  <sodipodi:namedview
     id="base"
     pagecolor="#779ecf"
     bordercolor="#666666"
     borderopacity="1.0"
     inkscape:pageopacity="1"
     inkscape:pageshadow="2"
     inkscape:zoom="1"
     inkscape:cx="85.666456"
     inkscape:cy="75.015797"
     inkscape:document-units="px"
     inkscape:current-layer="layer1"
     showgrid="false"
     inkscape:window-width="1366"
     inkscape:window-height="706"
     inkscape:window-x="-8"
     inkscape:window-y="-8"
     inkscape:window-maximized="1" />
  <metadata
     id="metadata7">
    <rdf:RDF>
      <cc:Work
         rdf:about="">
        <dc:format>image/svg+xml</dc:format>
        <dc:type
           rdf:resource="http://purl.org/dc/dcmitype/StillImage" />
      </cc:Work>
    </rdf:RDF>
  </metadata>
  <g
     inkscape:label="Layer 1"
     inkscape:groupmode="layer"
     id="layer1"
     transform="translate(0,-932.36218)">
    <path
       style="fill:url(#linearGradient4251);fill-opacity:1;fill-rule:nonzero;stroke:none"
       d="m 717.01532,965.39404 c -12.10625,0 -21.9375,6.49425 -21.9375,14.5 0,0.25018 0.0123,0.50293 0.0312,0.75 -7.92538,1.24646 -14.83027,5.2453 -19.4375,10.875 -3.71085,-3.1062 -8.07528,-4.90625 -12.75,-4.90625 -3.32102,0 -6.48934,0.89394 -9.375,2.53125 -1.9311,-2.48878 -4.32808,-3.96875 -6.90625,-3.96875 -2.9511,0 -5.6328,1.94955 -7.6875,5.125 -1.76099,-0.98925 -3.84565,-1.5625 -6.09375,-1.5625 -6.24839,0 -11.3125,4.40764 -11.3125,9.87504 0,0.2798 0.0365,0.5698 0.0625,0.8437 -8.84665,0.87997 -16.22355,6.52827 -19.1875,14.21877 -0.0221,0.01 -0.0405,0.024 -0.0625,0.031 0.048,-0.4269 0.0937,-0.8445 0.0937,-1.2812 0,-8.0058 -8.22137,-14.49997 -18.375,-14.49997 -5.88379,0 -11.10364,2.17177 -14.46875,5.56247 -3.99718,-3.94017 -8.89651,-6.28127 -14.1875,-6.28127 -2.71534,0 -5.31042,0.6228 -7.75,1.75 1.55895,-1.645 2.46875,-3.5674 2.46875,-5.625 0,-6.05312 -7.7759,-10.96874 -17.34375,-10.96874 -8.35063,0 -15.29905,3.74333 -16.9375,8.71875 -1.06977,-5.83696 -4.64386,-10.125 -8.875,-10.125 -3.67522,0 -6.84148,3.23082 -8.3125,7.90625 -2.40178,-0.55312 -4.9596,-0.84375 -7.59375,-0.84375 -6.74767,0 -12.88222,1.94636 -17.5625,5.15629 -2.91292,-2.78965 -6.50098,-4.43754 -10.375,-4.43754 -5.97492,0 -11.23764,3.91594 -14.4375,9.90624 -0.47808,-0.021 -0.98479,-0.031 -1.46875,-0.031 -2.28541,0 -4.49429,0.2754 -6.625,0.7187 0.84826,-1.3187 1.34375,-2.7573 1.34375,-4.25 0,-6.6389 -9.20605,-12.03124 -20.53125,-12.03124 -3.8128,0 -7.34805,0.6249 -10.40625,1.6875 -3.01131,-4.83178 -8.31828,-8.03125 -14.34375,-8.03125 -2.70555,0 -5.23027,0.66285 -7.5,1.8125 -0.78112,-0.69688 -1.70336,-1.33765 -2.71875,-1.9375 -1.08581,-5.20782 -4.9362,-9.0625 -9.5625,-9.0625 -3.28656,0 -6.19946,1.94397 -8,4.9375 -6.28179,0.0311 -11.96332,1.39383 -16.125,3.5625 -5.38593,0.88538 -10.20393,2.53917 -14.03125,4.8125 -3.36461,-0.38032 -6.92974,-0.59375 -10.625,-0.59375 -2.65175,0 -5.25747,0.1125 -7.75,0.3125 -1.91921,-4.39432 -5.65013,-7.375 -9.9375,-7.375 -4.88155,0 -9.03882,3.86619 -10.625,9.28125 -0.8104,-0.0596 -1.63454,-0.0937 -2.46875,-0.0937 -3.68372,0 -7.12674,0.60076 -10.1875,1.65625 -3.78274,-1.9526 -8.13371,-3.0625 -12.78125,-3.0625 -5.662,0 -10.90582,1.62837 -15.1875,4.4375 -2.43156,-3.54239 -6.42579,-5.875 -10.96875,-5.875 -6.36255,0 -11.6727,4.56105 -13.0625,10.65625 -6.41818,0.0503 -12.53748,0.31057 -18.21875,0.78125 -4.46135,-3.93395 -11.41884,-6.46875 -19.28125,-6.46875 -7.97508,0 -15.04869,2.59419 -19.5,6.625 -2.60745,-1.08134 -5.45493,-1.6875 -8.4375,-1.6875 -8.58211,0 -16.07077,4.92664 -19.90625,12.18756 -0.72437,-6.07012 -5.4715,-10.78131 -11.21875,-10.78131 -5.81723,0 -10.58515,4.82249 -11.21875,11.00001 -2.40514,0.2905 -4.7326,0.7264 -6.9375,1.3438 -3.77232,-3.69262 -8.97465,-5.96882 -14.71875,-5.96882 -4.25472,0 -8.200887,1.2562 -11.499997,3.40632 -7.577276,-7.72562 -18.601528,-12.59381 -30.90625,-12.59381 -9.187695,0 -17.666027,2.72148 -24.53125,7.31249 -1.334897,-0.1601 -2.709349,-0.25 -4.125,-0.25 -1.909555,0 -3.746099,0.1513 -5.5,0.4375 -4.281512,-2.9585 -9.450364,-4.68749 -15,-4.68749 -14.83992343,0 -26.875,12.36331 -26.875,27.59381 0,15.2304 12.03507657,27.5625 26.875,27.5625 4.502909,0 8.740833,-1.1471 12.46875,-3.1563 6.906618,11.9697 20.746559,20.125 36.6875,20.125 18.017084,0 33.326032,-10.4363 38.999997,-25 0.78049,0.1267 1.56783,0.211 2.375,0.25 3.35908,3.5065 8.02839,6.354 13.53125,8.2188 0.73954,0.6468 1.52116,1 2.34375,1 0.22362,0 0.46891,-0.043 0.6875,-0.094 3.74777,0.9713 7.82356,1.5 12.0625,1.5 13.61343,0 25.36764,-5.498 30.90625,-13.4375 1.76095,0.4536 3.60282,0.7188 5.5,0.7188 11.02033,0 20.1721,-8.1486 22.1875,-18.9063 1.84993,0.3056 3.76211,0.5 5.75,0.5 6.96942,0 13.24199,-1.9953 17.6875,-5.1875 6.72569,0.6084 14.11942,0.9375 21.90625,0.9375 4.31649,0 8.49808,-0.085 12.53125,-0.2812 3.64847,9.2398 13.27847,15.8437 24.59375,15.8437 11.79953,0 21.76943,-7.168 25.03125,-17.0312 2.40841,-0.1474 4.71884,-0.5388 6.84375,-1.1563 -0.93929,1.6219 -1.46875,3.3478 -1.46875,5.125 0,9.9584 15.81754,18.0313 35.34375,18.0313 16.86454,0 30.96752,-6.0361 34.5,-14.0938 5.77308,5.9017 16.19767,9.8438 28.09375,9.8438 5.88192,0 11.3792,-0.969 16.15625,-2.6563 1.87004,12.2781 13.856,21.75 28.375,21.75 13.72608,0 25.20797,-8.4824 28,-19.7812 0.7502,-0.9299 1.44425,-1.9423 2.0625,-3.0313 4.01759,1.8951 8.731,3 13.78125,3 2.23215,0 4.39766,-0.1921 6.46875,-0.5937 2.80959,11.0598 18.25779,19.6287 37.28125,20.3437 4.32655,9.3832 11.92362,15.625 20.59375,15.625 8.81432,0 16.55702,-6.4487 20.84375,-16.0937 1.8792,0.7839 3.90889,1.2187 6.03125,1.2187 2.28456,0 4.47169,-0.4731 6.46875,-1.375 3.3194,8.7359 10.72452,14.8125 19.34375,14.8125 10.32422,0 18.91487,-8.7208 20.8125,-20.2812 4.94114,-1.0261 9.30818,-3.5721 12.5,-7.0938 4.12007,10.4098 12.21012,17.5 21.5,17.5 10.15803,0 18.86104,-8.4714 22.53125,-20.5 4.42586,2.2393 9.51136,3.5313 14.9375,3.5313 3.53801,0 6.93012,-0.5643 10.09375,-1.5625 2.61749,10.9485 14.66733,19.2187 29.15625,19.2187 15.56031,0 28.29331,-9.5378 29.5625,-21.6875 2.32336,0.3058 4.71789,0.4688 7.1875,0.4688 1.08035,0 2.16364,0 3.21875,-0.062 5.37621,11.63 18.84981,19.875 34.625,19.875 12.60051,0 23.7266,-5.2681 30.4375,-13.3125 2.69947,5.2454 6.22495,8.7252 10.15625,9.5625 8.55919,7.4839 21.22877,12.25 35.40625,12.25 24.44615,0 44.49752,-14.116 46.5,-32.0625 4.69369,-0.4862 9.04894,-1.7918 12.84375,-3.75 2.53288,1.9088 5.5165,3.3925 8.8125,4.3125 4.57581,12.2737 15.23054,20.875 27.65625,20.875 16.59733,0 30.06253,-15.3409 30.06253,-34.2813 0,-17.05122 -10.9025,-31.19165 -25.18753,-33.84376 -2.67113,-4.96289 -7.16877,-8.25 -12.28125,-8.25 -4.18368,0 -7.95726,2.20578 -10.65625,5.71875 -4.33546,-2.1499 -12.16931,-3.59375 -21.15625,-3.59375 -10.25126,0 -19.05544,1.86644 -22.8125,4.53125 -2.32456,0.53488 -4.52774,1.26038 -6.59375,2.1875 -4.61132,-6.45151 -15.05799,-10.96875 -27.1875,-10.96875 -5.06599,0 -9.8268,0.80293 -14,2.1875 -1.45473,-2.26541 -3.2169,-3.59375 -5.09375,-3.59375 -3.45113,0 -6.42813,4.4633 -8,11.0625 -2.00707,-1.64241 -4.17013,-2.5625 -6.46875,-2.5625 -1.57528,0 -3.11196,0.42276 -4.5625,1.21875 -1.28652,-2.02022 -3.34324,-3.34375 -5.6875,-3.34375 -3.90524,0 -7.09375,3.63397 -7.09375,8.125 0,1.28296 0.28985,2.48338 0.75,3.5625 -3.45469,-3.61974 -9.76638,-6.03125 -17,-6.03125 -9.04764,0 -16.66716,3.78815 -19.03125,8.96875 -1.89076,0.45148 -3.71413,1.03319 -5.46875,1.71879 0.28292,-0.93736 0.4375,-1.89625 0.4375,-2.90629 0,-6.63891 -6.463,-12.03125 -14.46875,-12.03125 -7.86787,0 -14.2505,5.20668 -14.46875,11.6875 -0.68994,0.0794 -1.38754,0.17685 -2.0625,0.28125 -4.78427,-5.38062 -15.38041,-9.125 -27.6875,-9.125 -0.49827,0 -0.97635,0.0191 -1.46875,0.0312 0.0412,-0.36291 0.0625,-0.72388 0.0625,-1.09375 0,-8.00575 -9.8,-14.5 -21.90625,-14.5 z"
       id="path4128"
       inkscape:connector-curvature="0"
       clip-path="url(#clipPath4259)" />
    <path
       style="fill:#ffff92;fill-opacity:1;fill-rule:nonzero;stroke:none"
       d="m 103.8125,930.14343 -2.4375,1.55458 11.53125,21.66899 -12.65625,14.49887 -0.21875,0.12691 0.0312,0.0634 -3.03125,3.48988 0.28125,0.22208 2.9375,-3.36297 12.40625,22.49386 0.3125,-0.19035 -12.46875,-22.58905 12.59375,-14.40369 16.125,30.36196 -33.6875,44.25805 2.25,1.7449 24.15625,-31.72616 11.71875,21.22486 0.3125,-0.1904 -11.78125,-21.35172 10.625,-13.95953 -0.53125,-0.41244 -8.21875,-15.45065 19.28125,9.35922 0.15625,-0.34898 -19.75,-9.58131 -19.9375,-37.50036 z"
       id="rect4263"
       inkscape:connector-curvature="0" />
    <path
       style="fill:url(#linearGradient4120);fill-opacity:1;stroke:none"
       d="m 227.68014,968.92958 c -13.66835,0 -24.75,5.8378 -24.75,13.0625 0,2.00586 0.91102,3.89484 2.4375,5.59375 -1.13629,-0.18986 -2.3172,-0.28125 -3.5,-0.28125 -13.08256,0 -23.6875,12.0351 -23.6875,26.87492 0,0.2001 -0.004,0.3946 0,0.5937 -2.09371,-7.2896 -8.57079,-12.6249 -16.25,-12.6249 -8.23176,0 -15.07628,6.1181 -16.625,14.2187 -2.65291,0.2475 -5.0422,1.3961 -6.84375,3.1562 -3.69252,-5.306 -10.47182,-8.875 -18.25,-8.875 -11.71573,0 -21.218749,8.0729 -21.218749,18.0313 0,0.1036 -0.002,0.2093 0,0.3125 -1.098704,-0.3394 -2.227448,-0.6564 -3.375,-0.9375 -11.263165,-16.4047 -31.199264,-27.3124 -53.90625,-27.3124 -35.1471865,0 -63.625,26.1254 -63.625,58.3436 0,32.2183 28.4778135,58.3438 63.625,58.3438 26.015505,0 48.382353,-14.3426 58.25,-34.8438 6.944599,1.9093 14.936519,3 23.437499,3 5.27186,0 10.34253,-0.4145 15.09375,-1.1875 10.35195,12.6195 28.53971,21 49.25,21 13.16012,0 25.30221,-3.391 35.0625,-9.0937 2.50571,0.3931 5.0903,0.5937 7.71875,0.5937 15.76661,0 29.64803,-7.3546 37.75,-18.5312 2.05407,0.5509 4.21262,0.875 6.4375,0.875 9.62968,0 17.97741,-5.5237 22.1875,-13.5938 10.02279,12.6491 31.00568,21.375 55.25,21.375 6.21138,0 12.19137,-0.5935 17.84375,-1.6562 5.58554,16.8041 25.38283,29.2187 48.96875,29.2187 15.20117,0 28.82561,-5.1759 38.09375,-13.3437 7.84502,2.6494 16.62923,4.1562 25.90625,4.1562 26.03236,0 48.17751,-11.6883 56.53125,-28.0312 14.13709,4.1551 35.52507,6.8125 59.4375,6.8125 21.33383,0 40.63826,-2.1262 54.59375,-5.5313 4.9223,5.9529 12.53317,9.7813 21.0625,9.7813 7.28161,0 13.8794,-2.7946 18.71875,-7.3125 4.24463,2.3852 9.19118,3.7812 14.5,3.7812 6.69302,0 12.84385,-2.2005 17.6875,-5.8437 3.83466,1.9175 8.32187,3 13.09375,3 7.7211,0 14.64523,-2.8739 19.375,-7.4375 4.44312,4.0612 11.99816,6.75 20.5625,6.75 9.99383,0 18.59279,-3.6678 22.5,-8.9063 4.82668,0.7182 9.98709,1.125 15.34375,1.125 8.54477,0 16.56262,-0.9804 23.5625,-2.7187 4.79983,3.358 12.7254,5.5312 21.6875,5.5312 14.2305,0 25.82333,-5.527 26.46875,-12.4687 4.9515,1.6226 10.75982,2.5625 17,2.5625 5.02053,0 9.75445,-0.6056 14,-1.6875 2.09228,7.6774 6.5803,13 11.8125,13 3.8609,0 7.32425,-2.8987 9.71875,-7.5 8.69161,7.956 23.11331,13.1562 39.4375,13.1562 26.55566,0 48.09366,-13.7621 48.09366,-30.75 0,-10.9854 -9.0195,-20.6214 -22.5624,-26.0625 -2.0404,-6.3577 -9.0448,-11.0625 -17.40626,-11.0625 -4.03552,0 -7.74551,1.1244 -10.75,2.9688 -1.29609,-1.8408 -2.97619,-2.9688 -4.8125,-2.9688 -2.22348,0 -4.20178,1.6378 -5.5625,4.2188 -2.5161,-1.7448 -5.74487,-2.8125 -9.28125,-2.8125 -0.47911,0 -0.93907,0.025 -1.40625,0.062 -1.67844,-1.319 -4.05959,-2.1563 -6.71875,-2.1563 -3.19208,0 -6.00826,1.1638 -7.65625,2.9688 -1.55022,-3.0616 -4.35898,-5.0938 -7.5625,-5.0938 -4.66356,0 -8.44937,4.3179 -8.78125,9.8125 -0.13859,0.033 -0.27007,0.059 -0.40625,0.094 -0.91411,-0.2563 -1.86851,-0.4416 -2.84375,-0.5625 -0.74585,-2.1722 -2.50331,-3.6875 -4.5625,-3.6875 -0.80696,0 -1.57694,0.2403 -2.25,0.6562 -2.19392,-2.9143 -6.54404,-4.9062 -11.5625,-4.9062 -6.28818,0 -11.52533,3.1256 -12.78125,7.2812 -0.39266,0.055 -0.77374,0.1442 -1.15625,0.2188 -2.35489,-4.8767 -7.09815,-8.2188 -12.5625,-8.2188 -6.88542,0 -12.61282,5.3072 -13.875,12.3125 -1.0736,0.4252 -2.10857,0.8855 -3.0625,1.4063 -1.69622,-1.4994 -3.79887,-2.4063 -6.0625,-2.4063 -2.71579,0 -5.16556,1.2948 -7,3.375 -2.02415,-0.344 -4.16408,-0.5312 -6.40625,-0.5312 -1.48574,0 -2.94592,0.095 -4.34375,0.25 -2.88601,-3.5492 -7.91376,-5.9063 -13.6875,-5.9063 -6.53344,0 -12.16395,3.0259 -14.75,7.375 -1.91676,0.1427 -3.78973,0.3224 -5.625,0.5625 -1.10733,-0.9178 -2.41575,-1.7351 -3.875,-2.4375 0.58172,-0.83 0.90625,-1.7339 0.90625,-2.6875 0,-3.9052 -5.39234,-7.0625 -12.03125,-7.0625 -5.77068,0 -10.58774,2.4035 -11.75,5.5938 -0.0921,-0.048 -0.18792,-0.078 -0.28125,-0.125 -0.12173,-4.2061 -4.18736,-7.5938 -9.1875,-7.5938 -4.21731,0 -7.76125,2.4114 -8.84375,5.6875 -1.41975,0.3321 -2.7405,0.7787 -4,1.3125 -0.94269,-6.7135 -8.11207,-11.9375 -16.84375,-11.9375 -0.0104,0 -0.0208,0 -0.0312,0 -2.30755,-4.4871 -9.95298,-7.7812 -19.0625,-7.7812 -4.11263,0 -7.92832,0.6626 -11.09375,1.8125 -0.9661,-1.9033 -3.23896,-3.2187 -5.875,-3.2187 -3.51472,0 -6.375,2.3523 -6.375,5.2812 0,0.081 -0.004,0.1698 0,0.25 -6.20387,1.1572 -10.59375,3.9283 -10.59375,7.1875 0,0.2367 0.0486,0.4562 0.0937,0.6875 -2.65492,0.6579 -5.13194,1.7582 -7.34375,3.25 -1.92166,-0.7079 -3.99788,-1.125 -6.1875,-1.125 -5.35657,0 -10.10852,2.3659 -13.21875,6 -1.10603,-0.2092 -2.25298,-0.3438 -3.40625,-0.3438 -2.37414,0 -4.66681,0.4608 -6.8125,1.3125 -5.64242,-4.2532 -14.12611,-6.9687 -23.59375,-6.9687 -9.11278,0 -17.27387,2.5195 -22.90625,6.5 -1.3202,-0.5309 -2.77303,-0.8438 -4.3125,-0.8438 -4.4205,0 -8.21926,2.4463 -9.8125,5.9063 -2.18902,-0.1477 -4.47405,-0.2188 -6.8125,-0.2188 -5.54385,0 -10.72685,0.4206 -15.21875,1.1875 -4.01069,-4.2121 -9.80639,-6.875 -16.25,-6.875 -2.76744,0 -5.40573,0.5157 -7.84375,1.4063 -3.06691,-2.5975 -7.27734,-4.2188 -11.9375,-4.2188 -3.02228,0 -5.85452,0.6922 -8.3125,1.875 -2.64989,-4.905 -7.75788,-8.25 -13.625,-8.25 -0.97635,0 -1.91725,0.1053 -2.84375,0.2813 -0.2207,-7.2156 -5.79802,-12.9999 -12.6875,-12.9999 -6.63992,0 -12.10363,5.3703 -12.6875,12.2186 -2.98909,-1.4644 -6.5248,-2.3125 -10.3125,-2.3125 -6.40864,0 -12.08246,2.4173 -15.625,6.1563 -2.3558,-3.1885 -5.50514,-5.9896 -9.25,-8.2188 0.3274,-1.2816 0.5,-2.6119 0.5,-3.9687 0,-11.12987 -11.55836,-20.12492 -25.8125,-20.12492 -11.61246,0 -21.44606,5.98131 -24.6875,14.2187 -3.61343,-0.5107 -7.58671,-0.7812 -11.75,-0.7812 -16.79254,0 -30.40625,4.58742 -30.40625,10.24992 0,0.8519 0.32553,1.6773 0.90625,2.4687 -0.0208,2e-4 -0.0417,-1e-4 -0.0625,0 -6.42476,-3.8071 -17.86284,-6.4646 -31.25,-6.9687 -0.13612,-12.57679 -10.50992,-22.74992 -23.3125,-22.74992 -11.60111,0 -21.22584,8.35842 -23.03125,19.28122 -1.98194,-6.74712 -11.36052,-12.10857 -23.3125,-13.34372 1.14635,-1.50715 1.78125,-3.15111 1.78125,-4.875 0,-7.2247 -11.08165,-13.0625 -24.75,-13.0625 z"
       id="path3787"
       inkscape:connector-curvature="0"
       clip-path="url(#clipPath4255)" />
    <rect
       style="fill:#ffff92;fill-opacity:1;fill-rule:nonzero;stroke:none"
       id="rect2997"
       width="0.335278"
       height="17.61381"
       x="1011.9797"
       y="-114.58566"
       transform="matrix(-0.00974441,0.99995252,-0.93528625,0.35389212,0,0)" />
    <rect
       style="fill:#ffff92;fill-opacity:1;fill-rule:nonzero;stroke:none"
       id="rect2997-1"
       width="0.35355282"
       height="7.0817633"
       x="-84.860046"
       y="-982.28851"
       transform="matrix(-0.99999996,2.6935296e-4,-0.00362682,-0.99999342,0,0)" />
    <rect
       style="fill:#ffff92;fill-opacity:1;fill-rule:nonzero;stroke:none"
       id="rect2997-1-7"
       width="0.35355285"
       height="13.081661"
       x="-739.33533"
       y="-641.53845"
       transform="matrix(-0.74927411,-0.66226,0.66116099,-0.75024406,0,0)" />
  </g>
</svg>
